<svg id="图层_1" data-name="图层 1" xmlns="http://www.w3.org/2000/svg" viewBox="0 0 195.21 195.21"><defs><style>.cls-1{fill:#fff;}.cls-2{fill:#e40b7b;}</style></defs><path class="cls-1" d="M100.15,36.66c17.8,0,32.88,6.33,45.24,18.7s18.4,27.15,18.4,44.64q0,14.93-6.33,24.43c-4.22,6.34-10.26,9.65-18.4,9.65q-9,0-14.48-6.33a6.11,6.11,0,0,0-8.44-.6h0c-4.83,4.52-11.16,6.63-18.4,6.63-9,0-16.59-3-22.62-9.35s-9.05-14.17-9.05-24.13c0-9.65,3-17.49,9.05-23.83a29.72,29.72,0,0,1,22-9.65A26.34,26.34,0,0,1,118,76.47l.3.31h0a1,1,0,0,0,.6-.31h0v-.9a6,6,0,0,1,6-6h0a6.05,6.05,0,0,1,6,6h0v36.8a14.93,14.93,0,0,0,2.41,7.84c1.51,2.41,3.92,3.32,7.24,3.32q11.76,0,11.76-23.53a49.65,49.65,0,0,0-15.08-36.5c-10-10-22.32-14.78-36.8-14.78S73.91,53.55,63.65,63.5A49.65,49.65,0,0,0,48.57,100a49.65,49.65,0,0,0,15.08,36.5c10,9.95,22.32,14.78,36.8,14.78a54.91,54.91,0,0,0,15.69-2.42,6.05,6.05,0,0,1,7.54,3.32h0a6.39,6.39,0,0,1-3,7.84.29.29,0,0,0-.3.3,61.65,61.65,0,0,1-19.61,3c-18.09,0-33.48-6-45.84-18.4S36.51,117.8,36.21,100c0-17.49,6.33-32.27,18.7-44.64C67,42.69,82.05,36.66,100.15,36.66ZM85.07,116a20.22,20.22,0,0,0,28.05,0c3.92-3.93,5.73-9,5.73-15.39S117,89.14,113.12,85.22a20.22,20.22,0,0,0-28.05,0c-3.92,3.92-5.73,9-5.73,15.38A19.62,19.62,0,0,0,85.07,116Z" transform="translate(-2.39 -2.39)"/><circle class="cls-2" cx="133.05" cy="143.75" r="7.54"/><path class="cls-1" d="M100.78,171.75a1.74,1.74,0,0,1,1.56-1.82h0a1.74,1.74,0,0,1,1.81,1.56h0a1.74,1.74,0,0,1-1.55,1.82h0A1.46,1.46,0,0,1,100.78,171.75Zm-11.16,1h0A1.72,1.72,0,0,1,88.06,171h0a1.71,1.71,0,0,1,1.82-1.55h0a1.71,1.71,0,0,1,1.55,1.81h0c0,1-.52,1.56-1.81,1.56Zm23.62-2.08a1.6,1.6,0,0,1,1.3-2.07h0a1.6,1.6,0,0,1,2.07,1.29h0a1.61,1.61,0,0,1-1.29,2.08h-.26C114,172,113.24,171.49,113.24,170.71Zm-36.08-.78a1.75,1.75,0,0,1-1-2.07h0a1.76,1.76,0,0,1,2.07-1h0a1.77,1.77,0,0,1,1,2.08h0a1.64,1.64,0,0,1-1.55,1.29h0c0-.26-.26-.26-.52-.26Zm48-2.59a1.92,1.92,0,0,1,1-2.34h0a1.91,1.91,0,0,1,2.33,1h0a1.93,1.93,0,0,1-1,2.34H127A2.19,2.19,0,0,1,125.18,167.34ZM65.47,165a2.1,2.1,0,0,1-.77-2.33h0a2.08,2.08,0,0,1,2.33-.78h0a2.08,2.08,0,0,1,.78,2.33h0a1.26,1.26,0,0,1-1.56.78h0c-.26.26-.52,0-.78,0Zm71.13-3.11a1.69,1.69,0,0,1,.52-2.34h0a1.69,1.69,0,0,1,2.34.52h0a1.69,1.69,0,0,1-.52,2.34h0a1,1,0,0,1-.78.26h0a1.57,1.57,0,0,1-1.56-.78Zm-82-3.9h0a1.63,1.63,0,0,1-.26-2.33h0a1.65,1.65,0,0,1,2.34-.26h0a1.63,1.63,0,0,1,.26,2.33h0a1.43,1.43,0,0,1-1.3.78h0c-.26-.26-.52-.26-1-.52Zm92.16-3.37a1.94,1.94,0,0,1,0-2.34h0a1.93,1.93,0,0,1,2.33,0h0a1.94,1.94,0,0,1,0,2.34h0a2,2,0,0,1-1,.52h0A2,2,0,0,1,146.73,154.62Zm-101.5-5.45h0a1.94,1.94,0,0,1,0-2.34h0a1.93,1.93,0,0,1,2.33,0h0a1.94,1.94,0,0,1,0,2.34h0a2,2,0,0,1-1,.52h0a1.41,1.41,0,0,1-1.29-.52Zm110.32-3.64a1.63,1.63,0,0,1-.26-2.33h0a1.65,1.65,0,0,1,2.34-.26h0a1.63,1.63,0,0,1,.26,2.33h0a1.43,1.43,0,0,1-1.3.78h0A1.35,1.35,0,0,1,155.55,145.53ZM37.7,139a1.68,1.68,0,0,1,.52-2.33h0a1.68,1.68,0,0,1,2.33.52h0a1.68,1.68,0,0,1-.52,2.33h0a.94.94,0,0,1-.77.26h0A1.57,1.57,0,0,1,37.7,139Zm124.86-3.63a2.1,2.1,0,0,1-.78-2.34h0a2.1,2.1,0,0,1,2.34-.78h0a2.1,2.1,0,0,1,.78,2.34h0a1.26,1.26,0,0,1-1.56.78h-.78ZM31.73,127.62h0a1.91,1.91,0,0,1,1-2.33h0a1.92,1.92,0,0,1,2.33,1h0a1.92,1.92,0,0,1-1,2.34h-.52A2.18,2.18,0,0,1,31.73,127.62Zm136-3.63a1.78,1.78,0,0,1-1-2.08h0a1.77,1.77,0,0,1,2.08-1h0a1.77,1.77,0,0,1,1,2.08h0a1.65,1.65,0,0,1-1.56,1.3h0a.81.81,0,0,0-.52-.26ZM28.09,115.42a1.61,1.61,0,0,1,1.3-2.08h0a1.61,1.61,0,0,1,2.08,1.3h0a1.61,1.61,0,0,1-1.3,2.08h-.26A1.73,1.73,0,0,1,28.09,115.42Zm142.78-3.63a1.72,1.72,0,0,1-1.56-1.82h0a1.72,1.72,0,0,1,1.82-1.56h0a1.72,1.72,0,0,1,1.56,1.82h0c0,1-.78,1.56-1.82,1.56ZM26.54,102.7h0a1.73,1.73,0,0,1,1.55-1.82h0a1.74,1.74,0,0,1,1.82,1.56h0a1.74,1.74,0,0,1-1.56,1.82h0A1.73,1.73,0,0,1,26.54,102.7Zm143.55-5.19a1.74,1.74,0,0,1,1.56-1.82h0a1.73,1.73,0,0,1,1.81,1.56h0a1.73,1.73,0,0,1-1.55,1.82h0A1.46,1.46,0,0,1,170.09,97.51ZM28.61,91.8A1.72,1.72,0,0,1,27.05,90h0a1.72,1.72,0,0,1,1.82-1.56h0a1.72,1.72,0,0,1,1.56,1.82h0a1.74,1.74,0,0,1-1.82,1.56Zm139.92-6.23h0a1.61,1.61,0,0,1,1.3-2.08h0a1.61,1.61,0,0,1,2.08,1.3h0a1.61,1.61,0,0,1-1.3,2.08h-.26c-1,0-1.82-.52-1.82-1.3ZM31.21,79.34a1.77,1.77,0,0,1-1-2.08h0a1.77,1.77,0,0,1,2.08-1h0a1.76,1.76,0,0,1,1,2.08h0a1.63,1.63,0,0,1-1.55,1.3h0C31.47,79.6,31.47,79.6,31.21,79.34ZM164.9,73.89a1.92,1.92,0,0,1,1-2.34h0a1.92,1.92,0,0,1,2.33,1h0a1.91,1.91,0,0,1-1,2.33h-.52A1.74,1.74,0,0,1,164.9,73.89Zm-129-6a2.1,2.1,0,0,1-.78-2.34h0a2.1,2.1,0,0,1,2.34-.78h0a2.1,2.1,0,0,1,.78,2.34h0a1.75,1.75,0,0,1-1.56,1h0C36.4,68.17,36.14,67.92,35.88,67.92ZM159.45,63h0a1.68,1.68,0,0,1,.52-2.33h0a1.68,1.68,0,0,1,2.33.52h0a1.68,1.68,0,0,1-.52,2.33h0a1,1,0,0,1-.78.26h0A1.57,1.57,0,0,1,159.45,63ZM42.37,57.27a1.63,1.63,0,0,1-.26-2.33h0a1.65,1.65,0,0,1,2.34-.26h0A1.63,1.63,0,0,1,44.71,57h0a1.43,1.43,0,0,1-1.3.78h0C43.15,57.53,42.63,57.53,42.37,57.27Zm109.81-4.15h0a1.94,1.94,0,0,1,0-2.34h0a1.93,1.93,0,0,1,2.33,0h0a1.94,1.94,0,0,1,0,2.34h0a1.94,1.94,0,0,1-1,.52h0a1,1,0,0,1-1.3-.52ZM50.68,47.93a1.94,1.94,0,0,1,0-2.34h0a1.93,1.93,0,0,1,2.33,0h0a1.94,1.94,0,0,1,0,2.34h0a1.94,1.94,0,0,1-1,.52h0A2,2,0,0,1,50.68,47.93Zm92.41-3.12a1.63,1.63,0,0,1-.26-2.33h0a1.65,1.65,0,0,1,2.34-.26h0a1.63,1.63,0,0,1,.26,2.33h0a1.43,1.43,0,0,1-1.3.78h0A2,2,0,0,1,143.09,44.81ZM60.54,40.14a1.69,1.69,0,0,1,.52-2.34h0a1.69,1.69,0,0,1,2.34.52h0a1.69,1.69,0,0,1-.52,2.34h0a1,1,0,0,1-.78.26h0A1.57,1.57,0,0,1,60.54,40.14ZM133,38.32a2.09,2.09,0,0,1-.78-2.33h0a2.1,2.1,0,0,1,2.34-.78h0a2.09,2.09,0,0,1,.77,2.33h0a1.25,1.25,0,0,1-1.55.78H133ZM71.44,34.17a1.93,1.93,0,0,1,1-2.34h0a1.92,1.92,0,0,1,2.34,1h0a1.92,1.92,0,0,1-1,2.34h-.52A2.19,2.19,0,0,1,71.44,34.17Zm50.37-.78a1.77,1.77,0,0,1-1-2.08h0a1.76,1.76,0,0,1,2.07-1h0a1.77,1.77,0,0,1,1,2.08h0a1.65,1.65,0,0,1-1.56,1.3h0A.91.91,0,0,1,121.81,33.39ZM83.39,30.27a1.6,1.6,0,0,1,1.29-2.07h0a1.61,1.61,0,0,1,2.08,1.3h0a1.6,1.6,0,0,1-1.3,2.07H85.2A1.94,1.94,0,0,1,83.39,30.27Zm26.47.52A1.71,1.71,0,0,1,108.31,29h0a1.72,1.72,0,0,1,1.81-1.56h0a1.72,1.72,0,0,1,1.56,1.82h0a1.74,1.74,0,0,1-1.82,1.55Zm-14-2.33a1.74,1.74,0,0,1,1.55-1.82h0a1.74,1.74,0,0,1,1.82,1.56h0A1.73,1.73,0,0,1,97.66,30h0a1.73,1.73,0,0,1-1.81-1.55Z" transform="translate(-2.39 -2.39)"/><path class="cls-1" d="M97.14,180.6h0a2,2,0,0,1-1.81-2.07h0a2,2,0,0,1,2.07-1.82h0a1.78,1.78,0,0,1,1.82,1.82h0c-.26,1.29-1,2.07-2.08,2.07Zm12-2.33a1.66,1.66,0,0,1,1.55-2.08h0a1.67,1.67,0,0,1,2.08,1.56h0a1.66,1.66,0,0,1-1.56,2.07h-.26a1.72,1.72,0,0,1-1.81-1.55Zm-26,.52h0a2.27,2.27,0,0,1-1.56-2.34h0a2.27,2.27,0,0,1,2.34-1.56h0a2.28,2.28,0,0,1,1.55,2.34h0a2.23,2.23,0,0,1-1.81,1.56h-.52Zm39.45-3.38a1.85,1.85,0,0,1,1.3-2.33h0a1.85,1.85,0,0,1,2.34,1.29h0a1.86,1.86,0,0,1-1.3,2.34h-.52a2,2,0,0,1-1.82-1.3Zm-52.95-.78a1.63,1.63,0,0,1-1-2.33h0c.52-1,1.56-1.56,2.34-1h0a1.63,1.63,0,0,1,1,2.33h0a1.94,1.94,0,0,1-1.81,1.3h0a.81.81,0,0,1-.52-.26Zm65.67-4.15a1.81,1.81,0,0,1,.78-2.6h0a1.8,1.8,0,0,1,2.6.78h0a1.8,1.8,0,0,1-.78,2.6h0a1,1,0,0,1-.78.26h0C136.34,171.26,135.56,171,135.3,170.48ZM57.17,168.4a2,2,0,0,1-.52-2.59h0a2,2,0,0,1,2.59-.52h0a2,2,0,0,1,.52,2.59h0a1.84,1.84,0,0,1-1.55.78h0c-.52,0-.78-.26-1-.26ZM147,163.21a2,2,0,0,1,.26-2.6h0a2,2,0,0,1,2.59.26h0a2,2,0,0,1-.26,2.6h0a2,2,0,0,1-1,.52h0a2.23,2.23,0,0,1-1.55-.78ZM46,159.84a2,2,0,0,1-.26-2.6h0a2,2,0,0,1,2.59-.26h0a2,2,0,0,1,.26,2.6h0c-.26.52-.78.52-1.3.52h0a1.12,1.12,0,0,1-1.29-.26Zm111.36-5.72a2,2,0,0,1-.26-2.59h0a2,2,0,0,1,2.6-.26h0a2,2,0,0,1,.26,2.6h0c-.26.51-.78.51-1.3.51h0a2,2,0,0,1-1.3-.26Zm-121-4.67a2,2,0,0,1,.26-2.59h0a2,2,0,0,1,2.6.26h0a2,2,0,0,1-.26,2.59h0a2,2,0,0,1-1,.52h0A1.57,1.57,0,0,1,36.4,149.45Zm129.54-6.23a2,2,0,0,1-.52-2.59h0a2,2,0,0,1,2.59-.52h0a2,2,0,0,1,.52,2.59h0a1.85,1.85,0,0,1-1.56.78h0c-.51,0-.77,0-1-.26ZM28.61,137.77h0a1.8,1.8,0,0,1,.78-2.6h0A1.82,1.82,0,0,1,32,136h0a1.8,1.8,0,0,1-.78,2.6h0a1,1,0,0,1-.78.26h0A2.19,2.19,0,0,1,28.61,137.77ZM172.43,131c-1-.52-1.56-1.56-1-2.34h0a1.63,1.63,0,0,1,2.33-1h0c1,.52,1.56,1.55,1,2.33h0a2,2,0,0,1-1.81,1.3h0A.81.81,0,0,1,172.43,131ZM23.16,124.79a1.86,1.86,0,0,1,1.3-2.34h0a1.87,1.87,0,0,1,2.34,1.3h0a1.87,1.87,0,0,1-1.3,2.34H25A2,2,0,0,1,23.16,124.79ZM176.84,118a2.27,2.27,0,0,1-1.56-2.33h0a2.27,2.27,0,0,1,2.34-1.56h0a2.27,2.27,0,0,1,1.56,2.33h0a2.23,2.23,0,0,1-1.82,1.56h-.52ZM20.05,111A1.66,1.66,0,0,1,21.6,109h0a1.66,1.66,0,0,1,2.08,1.55h0a1.67,1.67,0,0,1-1.56,2.08h-.26C20.82,112.59,20.05,112.07,20.05,111Zm158.61-6.49a2,2,0,0,1-1.82-2.07h0a1.85,1.85,0,0,1,2.08-1.82h0a2,2,0,0,1,1.81,2.08h0a2,2,0,0,1-2.07,1.81ZM21.08,98.83a2,2,0,0,1-1.81-2.07h0a2,2,0,0,1,2.07-1.82h0a1.78,1.78,0,0,1,1.82,1.82h0c-.26,1.29-1,2.07-2.08,2.07Zm155.24-9.6h0a1.67,1.67,0,0,1,1.56-2.08h0A1.66,1.66,0,0,1,180,88.71h0a1.65,1.65,0,0,1-1.55,2.07h-.26a1.73,1.73,0,0,1-1.82-1.55ZM22.38,85.33A2.26,2.26,0,0,1,20.82,83h0a2.27,2.27,0,0,1,2.34-1.56h0a2.27,2.27,0,0,1,1.56,2.34h0a2.23,2.23,0,0,1-1.82,1.55h-.52ZM173.2,76a1.87,1.87,0,0,1,1.3-2.34h0a1.86,1.86,0,0,1,2.34,1.3h0a1.86,1.86,0,0,1-1.3,2.34H175c-.78.26-1.56-.52-1.82-1.3ZM26,72.09a1.91,1.91,0,0,1-1-2.33h0a1.63,1.63,0,0,1,2.33-1h0c1,.52,1.56,1.56,1,2.34h0a2,2,0,0,1-1.81,1.29h0C26.54,72.09,26.28,72.09,26,72.09Zm142-8.3h0a1.8,1.8,0,0,1,.78-2.6h0a1.8,1.8,0,0,1,2.6.78h0a1.8,1.8,0,0,1-.78,2.6h0a1,1,0,0,1-.78.26h0A2.19,2.19,0,0,1,168,63.79ZM32,59.63A2,2,0,0,1,31.47,57h0a2,2,0,0,1,2.59-.52h0a2,2,0,0,1,.52,2.59h0a1.85,1.85,0,0,1-1.55.78h0A2,2,0,0,1,32,59.63Zm128.75-7.27a2,2,0,0,1,.26-2.59h0a2,2,0,0,1,2.6.26h0a2,2,0,0,1-.26,2.59h0a2,2,0,0,1-1,.52h0a1.57,1.57,0,0,1-1.56-.78ZM40,48.47a2,2,0,0,1-.26-2.59h0a2,2,0,0,1,2.6-.26h0a2,2,0,0,1,.26,2.59h0c-.26.52-.78.52-1.3.52h0C40.81,49,40.55,48.73,40,48.47ZM151.4,42.76a2,2,0,0,1-.26-2.6h0a2,2,0,0,1,2.6-.26h0a2,2,0,0,1,.26,2.6h0c-.26.52-.78.52-1.3.52h0A2.83,2.83,0,0,1,151.4,42.76ZM49.9,38.87a2,2,0,0,1,.26-2.6h0a2,2,0,0,1,2.59.26h0a2,2,0,0,1-.26,2.6h0a1.89,1.89,0,0,1-1,.51h0A2.23,2.23,0,0,1,49.9,38.87Zm90.86-4.42h0a2,2,0,0,1-.52-2.59h0a2,2,0,0,1,2.59-.52h0a2,2,0,0,1,.52,2.59h0a1.85,1.85,0,0,1-1.56.78h0C141.53,35,141,34.71,140.76,34.45ZM61.32,31.08a1.8,1.8,0,0,1,.78-2.6h0a2,2,0,0,1,2.6.78h0a1.81,1.81,0,0,1-.78,2.6h0a1,1,0,0,1-.78.26h0A2.19,2.19,0,0,1,61.32,31.08Zm67.49-2.6h0c-1-.52-1.55-1.56-1-2.33h0c.52-1,1.55-1.56,2.33-1h0a1.82,1.82,0,0,1,1,2.33h0a2,2,0,0,1-1.82,1.3h0C129.33,28.48,129.07,28.48,128.81,28.48Zm-55-3.11A1.86,1.86,0,0,1,75.08,23h0a1.86,1.86,0,0,1,2.34,1.3h0a1.86,1.86,0,0,1-1.3,2.34H75.6a2,2,0,0,1-1.82-1.3Zm42.31-.78h0a2.28,2.28,0,0,1-1.55-2.34h0a2.27,2.27,0,0,1,2.33-1.56h0A2.27,2.27,0,0,1,118.43,23h0a2.23,2.23,0,0,1-1.82,1.56h-.52ZM87.28,22a1.66,1.66,0,0,1,1.56-2.07h0a1.66,1.66,0,0,1,2.07,1.55h0a1.66,1.66,0,0,1-1.55,2.08H89.1c-1,0-1.82-.52-1.82-1.56Zm15.32,1a1.78,1.78,0,0,1-1.82-1.82h0a1.85,1.85,0,0,1,2.08-1.81h0a2,2,0,0,1,1.81,2.07h0A2,2,0,0,1,102.6,23Z" transform="translate(-2.39 -2.39)"/><path class="cls-1" d="M103.89,186.68a2.5,2.5,0,0,1,1.82-2.34h0a2.5,2.5,0,0,1,2.34,1.82h0a2.5,2.5,0,0,1-1.82,2.34H106C104.93,188.76,104.15,188,103.89,186.68ZM90.65,188.5a1.94,1.94,0,0,1-1.81-2.34h0a1.94,1.94,0,0,1,2.33-1.82h0A1.94,1.94,0,0,1,93,186.68h0a2.1,2.1,0,0,1-2.34,1.82Zm28.3-3.64a2.29,2.29,0,0,1,1.56-2.59h0a2.29,2.29,0,0,1,2.59,1.55h0a2.31,2.31,0,0,1-1.55,2.6H121a2.26,2.26,0,0,1-2.08-1.56Zm-43.35.52a1.94,1.94,0,0,1-1.3-2.6h0a1.94,1.94,0,0,1,2.6-1.29h0a1.93,1.93,0,0,1,1.29,2.59h0a2.25,2.25,0,0,1-2.07,1.56h0c-.26,0-.52,0-.52-.26Zm57.63-5.19a2.19,2.19,0,0,1,1-2.86h0a2.18,2.18,0,0,1,2.85,1h0a2.19,2.19,0,0,1-1,2.86h0c-.26,0-.52.26-.78.26h0a2.65,2.65,0,0,1-2.07-1.3Zm-72.17-.26h0a2.19,2.19,0,0,1-1-2.86h0a2.19,2.19,0,0,1,2.86-1h0a2.17,2.17,0,0,1,1,2.85h0a1.74,1.74,0,0,1-1.82,1h0C61.58,180.19,61.32,180.19,61.06,179.93Zm85.67-6.75a2.3,2.3,0,0,1,.52-2.86h0a2.3,2.3,0,0,1,2.85.52h0a2.3,2.3,0,0,1-.52,2.86h0a1.56,1.56,0,0,1-1,.26h0A1.57,1.57,0,0,1,146.73,173.18Zm-98.91-1.3A2.1,2.1,0,0,1,47.3,169h0a2.12,2.12,0,0,1,2.86-.52h0a2.1,2.1,0,0,1,.52,2.85h0a2.25,2.25,0,0,1-1.56.78h0A1.14,1.14,0,0,1,47.82,171.88Zm110.85-7.79a2,2,0,0,1,0-2.85h0a2,2,0,0,1,2.85,0h0a2,2,0,0,1,0,2.85h0a2.19,2.19,0,0,1-1.55.52h0A4.39,4.39,0,0,1,158.67,164.09ZM36.14,161.76a2,2,0,0,1,0-2.86h0a2,2,0,0,1,2.86,0h0a2.06,2.06,0,0,1,0,2.86h0a2.79,2.79,0,0,1-1.56.52h0A1,1,0,0,1,36.14,161.76Zm132.65-8.83a2.1,2.1,0,0,1-.52-2.85h0a2.12,2.12,0,0,1,2.86-.52h0a2.1,2.1,0,0,1,.52,2.85h0a2.36,2.36,0,0,1-1.82.78h0a2,2,0,0,1-1-.26ZM26.28,149.82h0A2.3,2.3,0,0,1,26.8,147h0a2.29,2.29,0,0,1,2.85.52h0a2.3,2.3,0,0,1-.52,2.86h0a1.56,1.56,0,0,1-1,.26h0c-.78.26-1.29-.26-1.81-.78ZM176.84,140a2.17,2.17,0,0,1-1-2.85h0a2.19,2.19,0,0,1,2.86-1h0a2.18,2.18,0,0,1,1,2.85h0a1.73,1.73,0,0,1-1.81,1h0C177.62,140.21,177.36,140.21,176.84,140ZM18.75,136.32h0a2.19,2.19,0,0,1,1-2.86h0a2.18,2.18,0,0,1,2.85,1h0a2.19,2.19,0,0,1-1,2.86h0c-.26,0-.52.26-.78.26h0A2.65,2.65,0,0,1,18.75,136.32Zm164.06-10.13a1.93,1.93,0,0,1-1.3-2.59h0a1.94,1.94,0,0,1,2.6-1.3h0a2,2,0,0,1,1.3,2.6h0a2.27,2.27,0,0,1-2.08,1.55h0a.81.81,0,0,0-.52-.26Zm-169-4.67a2.28,2.28,0,0,1,1.55-2.59h0a2.3,2.3,0,0,1,2.6,1.55h0a2.31,2.31,0,0,1-1.56,2.6h-.52A2,2,0,0,1,13.82,121.52Zm172.1-10.12a1.94,1.94,0,0,1-1.81-2.34h0a1.94,1.94,0,0,1,2.33-1.82h0a1.94,1.94,0,0,1,1.82,2.34h0a2.1,2.1,0,0,1-2.34,1.82ZM11.48,106.46a2.49,2.49,0,0,1,1.82-2.33h0A2,2,0,0,1,15.37,106h0a2.5,2.5,0,0,1-1.81,2.33H13.3a2,2,0,0,1-1.82-1.82Zm172.89-12.2h0a2.5,2.5,0,0,1,1.81-2.33h0a2.5,2.5,0,0,1,2.34,1.81h0a2.5,2.5,0,0,1-1.82,2.34h-.26A1.84,1.84,0,0,1,184.37,94.26Zm-170.81-1a1.94,1.94,0,0,1-1.82-2.34h0a1.94,1.94,0,0,1,2.34-1.82h0a1.94,1.94,0,0,1,1.81,2.34h0a2.27,2.27,0,0,1-2.33,1.82ZM182,79.73h0a2.31,2.31,0,0,1,1.56-2.6h0a2.29,2.29,0,0,1,2.59,1.56h0a2.29,2.29,0,0,1-1.55,2.59h-.52A2,2,0,0,1,182,79.73ZM16.15,78.17a1.94,1.94,0,0,1-1.3-2.6h0a1.94,1.94,0,0,1,2.6-1.29h0a1.93,1.93,0,0,1,1.3,2.59h0a2.26,2.26,0,0,1-2.08,1.56h0C16.41,78.43,16.15,78.43,16.15,78.17ZM177.36,65.71h0a2.19,2.19,0,0,1,1-2.86h0a2.18,2.18,0,0,1,2.85,1h0a2.19,2.19,0,0,1-1,2.86h0c-.26,0-.52.26-.77.26h0A2.06,2.06,0,0,1,177.36,65.71ZM21.08,64.15a2.18,2.18,0,0,1-1-2.85h0a2.17,2.17,0,0,1,2.85-1h0a2.17,2.17,0,0,1,1,2.85h0a2,2,0,0,1-1.82,1.3h0A1.56,1.56,0,0,0,21.08,64.15ZM170.09,53a2.3,2.3,0,0,1,.52-2.86h0a2.28,2.28,0,0,1,2.85.52h0a2.31,2.31,0,0,1-.51,2.86h0a1.56,1.56,0,0,1-1,.26h0A2.36,2.36,0,0,1,170.09,53ZM28.61,50.91a2.1,2.1,0,0,1-.52-2.85h0A2.12,2.12,0,0,1,31,47.54h0a2.1,2.1,0,0,1,.52,2.85h0a2.36,2.36,0,0,1-1.82.78h0A1.56,1.56,0,0,1,28.61,50.91Zm132.13-9.34a2.06,2.06,0,0,1,0-2.86h0a2,2,0,0,1,2.86,0h0a2,2,0,0,1,0,2.86h0a2.2,2.2,0,0,1-1.56.52h0A4.39,4.39,0,0,1,160.74,41.57ZM38.22,39.23a2,2,0,0,1,0-2.85h0a2,2,0,0,1,2.85,0h0a2,2,0,0,1,0,2.85h0a2.19,2.19,0,0,1-1.55.52h0C39.26,40,38.74,39.75,38.22,39.23ZM149.84,31.7h0a2.1,2.1,0,0,1-.52-2.85h0a2.12,2.12,0,0,1,2.86-.52h0a2.1,2.1,0,0,1,.52,2.85h0a2.25,2.25,0,0,1-1.56.78h0A1.14,1.14,0,0,1,149.84,31.7ZM49.9,29.37c-.52-1-.52-2.34.52-2.86h0a2.29,2.29,0,0,1,2.85.52h0a2.3,2.3,0,0,1-.52,2.86h0a1.54,1.54,0,0,1-1,.26h0A1.36,1.36,0,0,1,49.9,29.37Zm87.22-5.2h0a2.17,2.17,0,0,1-1-2.85h0a2.19,2.19,0,0,1,2.86-1h0a2.19,2.19,0,0,1,1,2.86h0a1.75,1.75,0,0,1-1.82,1h0C137.64,24.43,137.38,24.17,137.12,24.17ZM62.88,21.84a2.19,2.19,0,0,1,1-2.86h0a2.17,2.17,0,0,1,2.85,1h0a2.19,2.19,0,0,1-1,2.86h0c-.26,0-.52.26-.77.26h0A2.06,2.06,0,0,1,62.88,21.84ZM123.36,19a1.93,1.93,0,0,1-1.29-2.59h0a1.93,1.93,0,0,1,2.59-1.3h0a1.94,1.94,0,0,1,1.3,2.59h0a2.26,2.26,0,0,1-2.08,1.56h0C123.62,19,123.62,19,123.36,19Zm-46.2-2.33a2.31,2.31,0,0,1,1.55-2.6h0a2.31,2.31,0,0,1,2.6,1.56h0a2.29,2.29,0,0,1-1.56,2.59h-.52c-1,0-2.07-.77-2.07-1.55Zm31.67-.52A1.94,1.94,0,0,1,107,13.79h0A1.94,1.94,0,0,1,109.35,12h0a1.94,1.94,0,0,1,1.81,2.34h0a2.1,2.1,0,0,1-2.33,1.82ZM92,13.79a2.5,2.5,0,0,1,1.82-2.34h0a2.5,2.5,0,0,1,2.34,1.82h0a2.5,2.5,0,0,1-1.82,2.34H94A1.71,1.71,0,0,1,92,13.79Z" transform="translate(-2.39 -2.39)"/><path class="cls-1" d="M97.66,195.27a2.33,2.33,0,0,1,2.34-2.34h0a2.33,2.33,0,0,1,2.34,2.34h0a2.33,2.33,0,0,1-2.34,2.34h0C98.7,197.35,97.66,196.57,97.66,195.27Zm-14.53.78h0a2.14,2.14,0,0,1-1.82-2.6h0a2.14,2.14,0,0,1,2.6-1.81h0a2.13,2.13,0,0,1,1.81,2.59h0a2.27,2.27,0,0,1-2.33,1.82h-.26Zm31.15-1.82a2.13,2.13,0,0,1,1.81-2.59h0a2.14,2.14,0,0,1,2.6,1.81h0a2.14,2.14,0,0,1-1.82,2.6h-.52A2.2,2.2,0,0,1,114.28,194.23Zm16.09-3.89a2.12,2.12,0,0,1,1.3-2.86h0a2.12,2.12,0,0,1,2.86,1.3h0a2.13,2.13,0,0,1-1.3,2.86h0c-.26,0-.52.26-.78.26h0C131.67,191.64,130.63,191.12,130.37,190.34Zm-63.86,1.3a2.11,2.11,0,0,1-1.3-2.86h0a2.1,2.1,0,0,1,2.86-1.3h0a2.1,2.1,0,0,1,1.3,2.86h0a2.58,2.58,0,0,1-2.08,1.56h0A1,1,0,0,0,66.51,191.64Zm79.18-8a2.41,2.41,0,0,1,.78-3.12h0a2.4,2.4,0,0,1,3.11.78h0a2.41,2.41,0,0,1-.78,3.12h0a1.56,1.56,0,0,1-1,.26h0C146.73,184.63,146,184.37,145.69,183.59Zm-94.49.78a2.18,2.18,0,0,1-.78-3.12h0a2.17,2.17,0,0,1,3.11-.78h0a2.18,2.18,0,0,1,.78,3.12h0a2.1,2.1,0,0,1-2.07,1h0A1.56,1.56,0,0,1,51.2,184.37Zm108.25-9.87a2.11,2.11,0,0,1,.26-3.11h0a2.11,2.11,0,0,1,3.11.26h0a2.11,2.11,0,0,1-.26,3.11h0a3.7,3.7,0,0,1-1.56.52h0a2.23,2.23,0,0,1-1.55-.78Zm-122.27.26a2.13,2.13,0,0,1-.26-3.11h0a2.13,2.13,0,0,1,3.11-.26h0a2.13,2.13,0,0,1,.26,3.11h0a2.34,2.34,0,0,1-1.81.78h0a4.39,4.39,0,0,1-1.3-.52Zm134.21-11.94a2.13,2.13,0,0,1-.26-3.11h0a2.13,2.13,0,0,1,3.11-.26h0a2.13,2.13,0,0,1,.26,3.11h0a2.35,2.35,0,0,1-1.81.78h0a1.68,1.68,0,0,1-1.3-.52Zm-146.15-.26a2.11,2.11,0,0,1,.26-3.11h0a2.11,2.11,0,0,1,3.11.26h0a2.11,2.11,0,0,1-.26,3.11h0a3.7,3.7,0,0,1-1.55.52h0A2.25,2.25,0,0,1,25.24,162.56Zm156-13a2.17,2.17,0,0,1-.78-3.11h0a2.18,2.18,0,0,1,3.12-.78h0a2.17,2.17,0,0,1,.78,3.11h0a2.11,2.11,0,0,1-2.08,1h0a2,2,0,0,1-1-.26ZM15.37,148.8a2.4,2.4,0,0,1,.78-3.11h0a2.41,2.41,0,0,1,3.12.78h0a2.4,2.4,0,0,1-.78,3.11h0a1.56,1.56,0,0,1-1,.26h0A3.21,3.21,0,0,1,15.37,148.8Zm173.41-14a2.1,2.1,0,0,1-1.3-2.86h0a2.1,2.1,0,0,1,2.86-1.3h0a2.1,2.1,0,0,1,1.3,2.86h0a2.57,2.57,0,0,1-2.08,1.55h0A1,1,0,0,0,188.78,134.79ZM8.36,133.23a2.12,2.12,0,0,1,1.3-2.86h0a2.12,2.12,0,0,1,2.86,1.3h0a2.12,2.12,0,0,1-1.3,2.86h0c-.26,0-.52.26-.78.26h0a2,2,0,0,1-2.08-1.56Zm185.09-14.54a2.14,2.14,0,0,1-1.81-2.6h0a2.13,2.13,0,0,1,2.59-1.81h0a2.14,2.14,0,0,1,1.82,2.59h0a2.28,2.28,0,0,1-2.34,1.82h-.26ZM4,116.87a2.14,2.14,0,0,1,1.82-2.59h0a2.13,2.13,0,0,1,2.59,1.81h0a2.14,2.14,0,0,1-1.81,2.6H6A2.21,2.21,0,0,1,4,116.87Zm189-16.87a2.33,2.33,0,0,1,2.34-2.34h0a2.33,2.33,0,0,1,2.34,2.34h0a2.33,2.33,0,0,1-2.34,2.34h0A2.33,2.33,0,0,1,192.93,100ZM2.39,100a2.33,2.33,0,0,1,2.34-2.34h0A2.33,2.33,0,0,1,7.07,100h0a2.33,2.33,0,0,1-2.34,2.34h0A2.33,2.33,0,0,1,2.39,100ZM191.64,83.91h0a2.14,2.14,0,0,1,1.81-2.6h0a2.14,2.14,0,0,1,2.6,1.82h0a2.14,2.14,0,0,1-1.82,2.59h-.52a2,2,0,0,1-2.07-1.81ZM5.77,85.72A2.14,2.14,0,0,1,4,83.13H4a2.14,2.14,0,0,1,2.6-1.82h0a2.14,2.14,0,0,1,1.81,2.6h0A2.27,2.27,0,0,1,6,85.72H5.77ZM187.22,68.07a2.12,2.12,0,0,1,1.3-2.86h0a2.13,2.13,0,0,1,2.86,1.3h0a2.12,2.12,0,0,1-1.3,2.86h0c-.26,0-.52.26-.78.26h0a2.44,2.44,0,0,1-2.08-1.56ZM9.66,69.63a2.1,2.1,0,0,1-1.3-2.86h0a2.11,2.11,0,0,1,2.86-1.3h0a2.1,2.1,0,0,1,1.3,2.86h0a2.58,2.58,0,0,1-2.08,1.56h0A1,1,0,0,0,9.66,69.63Zm170.81-16.1a2.4,2.4,0,0,1,.78-3.11h0a2.41,2.41,0,0,1,3.12.78h0a2.4,2.4,0,0,1-.78,3.11h0a1.56,1.56,0,0,1-1,.26h0A2.36,2.36,0,0,1,180.47,53.53Zm-164.06.78a2.17,2.17,0,0,1-.78-3.11h0a2.18,2.18,0,0,1,3.12-.78h0a2.17,2.17,0,0,1,.78,3.11h0a2.11,2.11,0,0,1-2.08,1h0A1.56,1.56,0,0,1,16.41,54.31Zm154.72-14a2.11,2.11,0,0,1,.26-3.11h0a2.11,2.11,0,0,1,3.11.26h0a2.11,2.11,0,0,1-.26,3.11h0a3.7,3.7,0,0,1-1.55.52h0a2.25,2.25,0,0,1-1.56-.78ZM25.5,40.55a2.13,2.13,0,0,1-.26-3.11h0a2.13,2.13,0,0,1,3.11-.26h0a2.13,2.13,0,0,1,.26,3.11h0a2.35,2.35,0,0,1-1.81.78h0A4.39,4.39,0,0,1,25.5,40.55ZM159.71,28.87a2.13,2.13,0,0,1-.26-3.11h0a2.13,2.13,0,0,1,3.11-.26h0a2.13,2.13,0,0,1,.26,3.11h0a2.36,2.36,0,0,1-1.82.78h0A4.36,4.36,0,0,1,159.71,28.87ZM36.92,28.35a2.11,2.11,0,0,1,.26-3.11h0a2.11,2.11,0,0,1,3.11.26h0A2.11,2.11,0,0,1,40,28.61h0a3.61,3.61,0,0,1-1.55.52h0A2.25,2.25,0,0,1,36.92,28.35Zm109.55-8.82a2.18,2.18,0,0,1-.78-3.12h0a2.17,2.17,0,0,1,3.11-.78h0a2.18,2.18,0,0,1,.78,3.12h0a2.1,2.1,0,0,1-2.07,1h0c-.26,0-.78-.26-1-.26Zm-96-1a2.41,2.41,0,0,1,.78-3.12h0a2.4,2.4,0,0,1,3.11.78h0a2.41,2.41,0,0,1-.78,3.12h0a1.56,1.56,0,0,1-1,.26h0A1.64,1.64,0,0,1,50.42,18.49Zm81.25-6a2.1,2.1,0,0,1-1.3-2.86h0a2.1,2.1,0,0,1,2.86-1.3h0a2.11,2.11,0,0,1,1.3,2.86h0a2.58,2.58,0,0,1-2.08,1.56h0A1,1,0,0,1,131.67,12.52Zm-66.46-1.3a2.13,2.13,0,0,1,1.3-2.86h0a2.12,2.12,0,0,1,2.86,1.3h0a2.12,2.12,0,0,1-1.3,2.86h0c-.26,0-.52.26-.78.26h0A2.58,2.58,0,0,1,65.21,11.22Zm50.88-2.86a2.13,2.13,0,0,1-1.81-2.59h0A2.14,2.14,0,0,1,116.87,4h0a2.14,2.14,0,0,1,1.82,2.6h0a2.27,2.27,0,0,1-2.34,1.81h-.26ZM81.31,6.55A2.14,2.14,0,0,1,83.13,4h0a2.14,2.14,0,0,1,2.59,1.82h0a2.13,2.13,0,0,1-1.81,2.59h-.52A2,2,0,0,1,81.31,6.55ZM97.66,4.73A2.33,2.33,0,0,1,100,2.39h0a2.33,2.33,0,0,1,2.34,2.34h0A2.33,2.33,0,0,1,100,7.07h0A2.33,2.33,0,0,1,97.66,4.73Z" transform="translate(-2.39 -2.39)"/></svg>