<svg id="图层_1" data-name="图层 1" xmlns="http://www.w3.org/2000/svg" viewBox="0 0 379.81 388.72"><defs><style>.cls-1{fill:#fff;}.cls-2{fill:#e40b7b;}</style></defs><path class="cls-1" d="M254.05,212.11a46.33,46.33,0,0,0-.94,10.66q0,8.16,3,11.92t9.25,3.76q9.72,0,17.88-8.93t12.86-24.31a113.25,113.25,0,0,0,4.7-33.24q0-29.47-11.92-49.24a74,74,0,0,0-32-29.33q-20.07-9.56-44.53-9.56a118.5,118.5,0,0,0-104.75,61.31q-16.31,29-16.31,65.71,0,46.09,26.66,70.56t75.27,24.46a168.44,168.44,0,0,0,36.85-3.76q16.77-3.76,28.07-10l3.13,5a14.32,14.32,0,0,1,2.2,7.84c0,2.93-.74,4.91-2.2,6q-13.48,8.78-33.87,14.9a153.51,153.51,0,0,1-44.22,6.11q-35.13,0-62.88-14A103.29,103.29,0,0,1,76.7,276.87q-15.84-27.14-15.84-64.76,0-43,20.54-78.41a150.58,150.58,0,0,1,55.83-55.82q35.28-20.38,77.3-20.39,33.89,0,60.06,13.8A98.77,98.77,0,0,1,315.36,111Q330,136.85,330,172q0,26.34-8.47,47.2t-25.87,33.08q-17.42,12.24-43.13,12.23a71.06,71.06,0,0,1-23.68-3.6,60.58,60.58,0,0,1-19.28-11.45,67.1,67.1,0,0,1-18.66,9.72,68.76,68.76,0,0,1-22.74,3.77q-22.58,0-33.87-14.43T123,209.29q0-21.64,8.31-39.21a67.76,67.76,0,0,1,23.36-27.75q15.06-10.19,34.81-10.19a71.69,71.69,0,0,1,18.35,2.35,60.73,60.73,0,0,1,16.15,6.74,44.31,44.31,0,0,1,10.67-3.92,46.78,46.78,0,0,1,10.66-1.41h21Zm-75.27,18.35q4.4,7,13.17,7,7.85,0,12.86-4.39l10.35-71.82a27.38,27.38,0,0,0-12.23-3.13q-7.53,0-14.11,6t-10.51,17.4Q174.38,193,174.39,208,174.39,223.41,178.78,230.46Z" transform="translate(-6.25 -8.59)"/><circle class="cls-2" cx="283.23" cy="280.06" r="15.99"/><circle class="cls-1" cx="273.37" cy="355.07" r="17"/><circle class="cls-1" cx="237.85" cy="377.87" r="16.35" transform="translate(-179.49 543.53) rotate(-80.78)"/><circle class="cls-1" cx="187.63" cy="373.03" r="15.69"/><circle class="cls-1" cx="144.06" cy="366.12" r="15.04"/><circle class="cls-1" cx="103.38" cy="349.02" r="14.38"/><circle class="cls-1" cx="67.96" cy="322.71" r="13.73"/><circle class="cls-1" cx="39.93" cy="288.64" r="13.08"/><circle class="cls-1" cx="20.82" cy="248.86" r="12.42"/><circle class="cls-1" cx="11.77" cy="205.68" r="11.77"/><circle class="cls-1" cx="13.38" cy="161.58" r="11.12"/><circle class="cls-1" cx="25.47" cy="119.15" r="10.46"/><circle class="cls-1" cx="47.33" cy="80.82" r="9.81"/><circle class="cls-1" cx="77.74" cy="48.86" r="9.15"/><circle class="cls-1" cx="114.95" cy="25.14" r="8.5"/><circle class="cls-1" cx="156.73" cy="10.94" r="7.85"/><circle class="cls-1" cx="200.69" cy="7.19" r="7.19"/><circle class="cls-1" cx="244.27" cy="14.11" r="6.54"/><circle class="cls-1" cx="284.95" cy="31.21" r="5.88"/><circle class="cls-1" cx="320.36" cy="57.53" r="5.23"/><circle class="cls-1" cx="354.64" cy="100.19" r="4.58" transform="translate(120.11 380.9) rotate(-67.5)"/><circle class="cls-1" cx="373.74" cy="139.97" r="3.92" transform="translate(51.93 375.71) rotate(-58.28)"/><circle class="cls-1" cx="376.54" cy="174.56" r="3.27"/><circle class="cls-1" cx="381.18" cy="227.25" r="2.62" transform="translate(89.55 558.51) rotate(-80.78)"/><path class="cls-1" d="M369.07,271.65a2,2,0,1,1,2-2A2,2,0,0,1,369.07,271.65Z" transform="translate(-6.25 -8.59)"/><path class="cls-1" d="M347.21,309.32a1.31,1.31,0,1,1,1.31-1.31A1.31,1.31,0,0,1,347.21,309.32Z" transform="translate(-6.25 -8.59)"/><circle class="cls-1" cx="310.54" cy="331.38" r="0.65"/></svg>