<?xml version="1.0" encoding="utf-8"?>
<!-- Generator: Adobe Illustrator 25.0.1, SVG Export Plug-In . SVG Version: 6.00 Build 0)  -->
<svg version="1.1" id="图层_1" xmlns="http://www.w3.org/2000/svg" xmlns:xlink="http://www.w3.org/1999/xlink" x="0px" y="0px"
	 viewBox="0 0 400 400" style="enable-background:new 0 0 400 400;" xml:space="preserve">
<style type="text/css">
	.st0{fill:none;stroke:#FFFFFF;stroke-width:15;stroke-linecap:round;stroke-miterlimit:10;stroke-dasharray:0,35;}
	.st1{fill:#FFFFFF;}
	.st2{fill:#E40B7B;}
</style>
<circle class="st0" cx="199.69" cy="199.54" r="193"/>
<g>
	<g>
		<path class="st1" d="M200.48,47.39c43.09,0,79.36,14.85,108.79,44.54c29.43,29.7,44.15,65.57,44.15,107.61
			c0,23.65-5.06,43.23-15.18,58.73c-10.12,15.51-24.77,23.26-43.95,23.26c-14.18,0-25.78-4.97-34.8-14.9
			c-5.29-5.83-14.3-6.56-20.1-1.23c-11.72,10.76-26.53,16.13-44.43,16.13c-21.55,0-39.68-7.55-54.39-22.67
			c-14.72-15.11-22.07-34.35-22.07-57.75c0-23.12,7.35-42.3,22.07-57.55c14.71-15.24,32.32-22.86,52.82-22.86
			c20.07,0,36.78,7.63,50.13,22.89c0.2,0.23,0.5,0.37,0.81,0.37l0,0c0.6,0,1.09-0.49,1.09-1.09v-2.46c0-7.84,6.35-14.19,14.19-14.19
			h0c7.84,0,14.19,6.35,14.19,14.19v88.69c0,6.84,1.9,13.01,5.72,18.53c3.81,5.52,9.66,8.28,17.54,8.28
			c18.65,0,27.99-18.78,27.99-56.37c0-34.69-12.09-63.98-36.26-87.9c-24.18-23.91-53.61-35.87-88.29-35.87s-64.12,11.96-88.29,35.87
			c-24.18,23.92-36.26,53.21-36.26,87.9c0,34.69,12.08,63.99,36.26,87.9c24.17,23.92,53.61,35.87,88.29,35.87
			c13.6,0,26.15-1.96,37.65-5.86c7.15-2.43,14.95,1,17.82,7.98l0.12,0.29c3.12,7.58-0.78,16.3-8.58,18.85
			c-14.56,4.75-30.23,7.12-47.02,7.12c-43.62,0-80.28-14.78-109.97-44.34c-29.7-29.56-44.54-65.49-44.54-107.8
			c0-42.04,14.91-77.91,44.74-107.61C120.53,62.24,157.12,47.39,200.48,47.39z M164.02,237.77c9.32,9.2,20.56,13.8,33.7,13.8
			c13.14,0,24.37-4.59,33.7-13.8c9.32-9.19,13.99-21.41,13.99-36.66c0-15.24-4.67-27.46-13.99-36.66c-9.33-9.2-20.56-13.8-33.7-13.8
			c-13.14,0-24.38,4.6-33.7,13.8c-9.33,9.2-13.99,21.42-13.99,36.66C150.03,216.36,154.69,228.58,164.02,237.77z"/>
	</g>
	<circle class="st2" cx="285.54" cy="310.66" r="17.85"/>
</g>
</svg>
